<svg width="37" height="37" viewBox="0 0 37 37" fill="none" xmlns="http://www.w3.org/2000/svg">
<path d="M20.2455 23.1113L23.1085 20.2493L36.0085 33.1393L33.1485 36.0033L20.2455 23.1113ZM28.8375 11.6613L34.5675 5.93126C26.6675 -1.96874 13.8675 -1.97874 5.9575 5.91125C13.8275 3.30125 22.5775 5.39125 28.8375 11.6613ZM5.9075 5.95125C-1.9725 13.8613 -1.9725 26.6613 5.9275 34.5613L11.6575 28.8313C5.3875 22.5813 3.2975 13.8313 5.9075 5.95125ZM5.9475 5.92126C5.9375 5.93126 5.9375 5.93126 5.9275 5.93126C5.9175 5.94126 5.9175 5.94125 5.9175 5.95125C5.1675 11.9713 8.2575 19.7213 14.5275 25.9813L25.9875 14.5213C19.7075 8.26126 11.9675 5.16126 5.9475 5.92126Z" fill="#F2785C"/>
</svg>
