<svg width="55" height="56" viewBox="0 0 55 56" fill="none" xmlns="http://www.w3.org/2000/svg">
<path d="M27.5596 4.66675C16.3463 4.66528 6.78749 12.9454 4.99216 24.2153C3.19683 35.4851 9.69511 46.417 20.334 50.0244C21.4798 50.2344 21.89 49.5181 21.89 48.9021C21.89 48.3491 21.8717 46.8837 21.8648 44.9354C15.5054 46.3354 14.1625 41.8134 14.1625 41.8134C13.7438 40.4063 12.8438 39.1985 11.6256 38.4091C9.56312 36.9648 11.7837 36.9974 11.7837 36.9974C13.252 37.2024 14.5442 38.0881 15.2831 39.3961C15.9086 40.554 16.9624 41.4096 18.2103 41.7729C19.4582 42.1361 20.7969 41.9768 21.929 41.3304C22.0353 40.1498 22.5512 39.0463 23.3842 38.2177C18.3104 37.6321 12.9754 35.6347 12.9754 26.7144C12.9473 24.4072 13.7887 22.1768 15.3267 20.4821C14.6308 18.4738 14.7127 16.271 15.5558 14.3221C15.5558 14.3221 17.474 13.6944 21.8396 16.7044C25.5838 15.6591 29.5353 15.6591 33.2796 16.7044C37.6475 13.6921 39.5633 14.3221 39.5633 14.3221C40.4103 16.2701 40.4923 18.4744 39.7925 20.4821C41.3361 22.1766 42.1768 24.4129 42.1392 26.7237C42.1392 35.6674 36.7996 37.6321 31.7075 38.2084C32.8059 39.3519 33.3693 40.9205 33.2544 42.5157C33.2544 45.6284 33.2269 48.1391 33.2269 48.9021C33.2269 49.5251 33.6348 50.2484 34.8012 50.0197C45.4357 46.4062 51.927 35.4737 50.1279 24.2068C48.3289 12.9399 38.7706 4.66414 27.5596 4.66675Z" fill="white"/>
</svg>
